<?xml version="1.0" encoding="UTF-8" standalone="no"?>
<!-- Created with Inkscape (http://www.inkscape.org/) -->

<svg
   version="1.1"
   id="svg1"
   width="907.1817"
   height="790.63727"
   viewBox="0 0 907.1817 790.63727"
   xmlns="http://www.w3.org/2000/svg"
   xmlns:svg="http://www.w3.org/2000/svg">
  <defs
     id="defs1" />
  <g
     id="g1"
     transform="translate(-35.558685,-31.058628)">
    <path
       style="fill:#000000"
       d="m 449.15818,821.57465 c -93.05148,-4.7129 -175.89775,-24.026 -242.66666,-56.5702 -38.26257,-18.6498 -66.35944,-38.2985 -93.3779,-65.3011 -7.44641,-7.442 -16.543752,-17.3468 -20.518162,-22.3392 -33.75016,-42.3951 -52.75013,-91.55789 -56.43656,-146.0308 -3.68322,-54.42548 9.61766,-118.19308 39.00514,-187.00001 2.66226,-6.23333 6.54364,-14.93333 8.62529,-19.33333 2.08164,-4.4 4.05487,-9.40608 4.38494,-11.12463 0.98812,-5.14474 3.43893,-26.01449 5.97448,-50.87537 0.74792,-7.33334 1.65783,-16.03334 2.02202,-19.33334 0.36419,-3.3 1.4209,-12.9 2.34825,-21.33333 9.063472,-82.42326 19.547832,-138.274224 29.776712,-158.622744 7.83605,-15.58841 18.90599,-26.18342 32.19579,-30.81452 4.93565,-1.71992 6.079,-1.8568 15.33334,-1.83562 8.96754,0.0205 10.61607,0.21157 15.9671,1.8504 21.28795,6.51972 43.15033,23.21563 84.76904,64.7366 11.77155,11.743904 25.07092,25.300874 29.55415,30.126614 l 8.15134,8.77407 7.44585,-2.65744 c 38.22129,-13.64123 85.14837,-23.64097 131.44584,-28.00994 12.57035,-1.18623 59.42965,-1.18623 72,0 46.26995,4.36637 92.21507,14.14766 131.46755,27.98824 l 7.46755,2.63309 8.12964,-8.75105 c 4.4713,-4.81307 17.7609,-18.35968 29.53244,-30.103584 41.61871,-41.52097 63.48111,-58.21688 84.76901,-64.7366 5.3511,-1.63883 6.9996,-1.82987 15.9671,-1.8504 9.2544,-0.0212 10.3977,0.1157 15.3334,1.83562 13.2898,4.6311 24.3597,15.22611 32.1958,30.81452 11.6305,23.13682 22.3397,84.866314 33.4751,192.956074 3.2739,31.77873 5.5882,51.69964 6.6463,57.20871 0.3301,1.71855 2.3033,6.72463 4.385,11.12463 2.0816,4.4 5.963,13.1 8.6253,19.33333 29.4508,68.9553 42.6824,132.47018 38.98,187.11364 -3.6892,54.45 -22.6597,103.52017 -56.4115,145.91717 -14.4045,18.0942 -38.8904,40.875 -60.7855,56.5527 -56.1149,40.1803 -136.40814,68.8603 -227.77719,81.3599 -37.27232,5.099 -54.46308,6.1684 -102.33333,6.3654 -22.55,0.093 -43.1,0.062 -45.66667,-0.068 z m 95.33334,-31.8411 c 85.29104,-6.4662 155.21641,-23.8007 215.33335,-53.3812 36.3768,-17.8992 62.8645,-36.6011 87.0004,-61.4277 17.5774,-18.0803 29.7413,-35.1164 40.717,-57.02588 25.6166,-51.13577 30.8294,-108.44468 15.9041,-174.8483 -7.3054,-32.50205 -18.5952,-64.63546 -36.6745,-104.3838 -7.7529,-17.04511 -7.2641,-14.19025 -14.9523,-87.33333 -6.6215,-62.9953 -11.8704,-101.11427 -18.4017,-133.63745 -2.5346,-12.62117 -6.7909,-29.565144 -8.6317,-34.362554 -3.8604,-10.06049 -9.4577,-17.71023 -14.795,-20.22034 -7.3829,-3.4721 -17.8096,-1.0434 -30.3177,7.06192 -18.1591,11.76715 -56.65729,47.780084 -87.82981,82.159914 -11.43085,12.60695 -15.74356,16.63489 -18.76283,17.52389 -4.05858,1.19501 -6.79602,0.97134 -11.25598,-0.91974 -23.82432,-10.10179 -66.82253,-21.83039 -98.89549,-26.97569 -49.63474,-7.96263 -85.47866,-8.56382 -132.77118,-2.2269 -38.17989,5.11588 -85.58078,17.29385 -113.66666,29.20259 -4.45997,1.89108 -7.19741,2.11475 -11.25599,0.91974 -3.01926,-0.889 -7.33198,-4.91694 -18.76282,-17.52389 -31.10888,-34.30964 -69.70778,-70.416784 -87.82976,-82.159914 -12.50812,-8.10532 -22.93484,-10.53402 -30.31772,-7.06192 -5.33736,2.51011 -10.93458,10.15985 -14.795,20.22034 -1.84086,4.79741 -6.09709,21.741384 -8.63169,34.362554 -6.47055,32.22056 -11.65318,69.90653 -18.42387,133.97078 -7.76338,73.45713 -7.15333,69.90225 -14.93014,87 -11.4387,25.14864 -18.125432,41.9383 -25.090692,63.00001 -21.2918,64.38272 -25.46442,120.80949 -12.62034,170.66667 16.63917,64.5887 57.411542,115.0377 123.718992,153.0816 62.82519,36.0459 149.42809,59.1599 241.93903,64.5725 6.78333,0.3969 13.98333,0.8244 16,0.95 10.63636,0.6623 76.05685,-0.2227 89,-1.2039 z"
       id="path1" />
  </g>
</svg>
